<svg width="652" height="200" xmlns="http://www.w3.org/2000/svg" xml:space="preserve" version="1.1">

 <g>
  <title>Layer 1</title>
  <path id="svg_1" fill="#663399" d="m363.8,91.7l15.8,0l0,56.6l-15.8,0l0,-7.4c-5.7,8.5 -13,9 -17.5,9c-17.5,0 -28.8,-13.6 -28.8,-30c0,-17 11.3,-30 27.7,-30c4.5,0 13,0.6 18.1,9l0,-7.4l0.5,0l0,0.2zm-29.5,28.3c0,9 6.2,15.8 15.8,15.8c9,0 15.8,-6.8 15.8,-15.8s-6.2,-15.8 -15.8,-15.8c-9,-0.1 -15.8,6.7 -15.8,15.8zm76.4,-14.7l0,43l-15.8,0l0,-43l-6.2,0l0,-13.6l6.2,0l0,-19.2l15.8,0l0,19.2l10.7,0l0,13.6l-10.7,0zm48.1,0c-4,-3.4 -7.4,-4 -9,-4c-4,0 -6.2,1.7 -6.2,4.5c0,1.7 0.6,3.4 5.1,5.1l4,1.1c4.5,1.7 11.3,3.4 14.1,7.9c1.7,2.3 2.8,5.7 2.8,9.6c0,5.1 -1.7,10.2 -6.2,14.1s-10.2,6.2 -17,6.2c-11.9,0 -18.1,-5.7 -22.1,-9.6l8.5,-9.6c3.4,3.4 7.9,6.8 12.4,6.8c4.5,0 7.9,-2.3 7.9,-6.2c0,-3.4 -2.8,-5.1 -5.1,-5.7l-3.4,-1.1c-4,-1.7 -8.5,-3.4 -11.9,-6.8c-2.8,-2.8 -4.5,-6.2 -4.5,-10.7c0,-5.7 2.8,-10.2 5.7,-13c4.5,-3.4 10.2,-4 14.7,-4c4,0 10.7,0.6 18.1,6.2c0,0.1 -7.9,9.2 -7.9,9.2zm34.5,-6.3c5.7,-7.9 13.6,-9 18.1,-9c16.4,0 27.7,13 27.7,30c0,17 -11.3,30 -28.3,30c-3.4,0 -11.9,-0.6 -18.1,-9l0,7.4l-15.3,0l0,-95l15.8,0c0.1,-0.2 0.1,45.6 0.1,45.6zm-1.7,21c0,9 6.2,15.8 15.8,15.8c9,0 15.8,-6.8 15.8,-15.8s-6.2,-15.8 -15.8,-15.8c-9.6,-0.1 -15.8,6.7 -15.8,15.8zm73.5,19.8l-27.1,-48.1l18.7,0l17.5,32.2l15.8,-32.2l18,0l-45.2,86.5l-18.1,0c0,0 20.4,-38.4 20.4,-38.4zm-251.7,-38.5l-39.6,0l0,15.8l20.9,0c-3.4,10.7 -11.3,18.1 -26,18.1c-16.4,0 -28.3,-13.6 -28.3,-30s11.3,-30.5 27.7,-30.5c9,0 18.1,4.5 23.8,11.9l13,-8.5c-8.5,-11.9 -22.1,-18.7 -36.8,-18.7c-24.9,0 -45.2,20.4 -45.2,45.8s19.2,45.8 45.2,45.8s45.2,-20.4 45.2,-45.8c0.7,-1.6 0.1,-2.8 0.1,-3.9z"/>
  <path id="svg_2" fill="#663399" d="m162.4,321l-39.6,0l0,11.3l27.2,0c-4,17 -16.4,31.1 -32.8,36.8l-65,-65c6.8,-19.8 26,-33.9 48.1,-33.9c17,0 32.2,8.5 41.8,21.5l8.5,-7.4c-11.3,-15.3 -29.4,-25.4 -50.3,-25.4c-29.4,0 -54.3,20.9 -60.5,48.6l74.6,74.6c27.1,-6.8 48,-31.7 48,-61.1zm-124.4,0.6c0,15.8 6.2,31.1 18.1,43c11.9,11.9 27.7,18.1 43,18.1l-61.1,-61.1z" class="st0"/>
  <path stroke="null" id="svg_3" fill="#663399" d="m110.2,20.8c-43.5,0 -79.2,35.7 -79.2,79.2s35.6,79.2 79.2,79.2s79.2,-35.6 79.2,-79.2s-35.6,-79.2 -79.2,-79.2zm-44.1,123.3c-11.9,-11.9 -18.1,-27.7 -18.1,-43l61.6,61.1c-15.8,-0.6 -31.6,-6.2 -43.5,-18.1zm57.7,16.4l-74.1,-74.1c6.2,-27.7 31.1,-48.6 60.5,-48.6c20.9,0 39,10.2 50.3,25.4l-8.5,7.4c-9.6,-13 -24.9,-21.5 -41.8,-21.5c-22.1,0 -40.7,14.1 -48.1,33.9l65,65c16.4,-5.7 28.8,-19.8 32.8,-36.8l-27.1,0l0,-11.2l39.6,0c0,29.4 -20.9,54.3 -48.6,60.5z" class="st1"/>
 </g>
</svg>